HIERARCHY
ROOT Hips
{
	OFFSET 0.000000 0.000000 0.000000
	CHANNELS 6 Xposition Yposition Zposition Zrotation Yrotation Xrotation 
	JOINT LHipJoint
	{
		OFFSET 0.000000 0.000000 0.000000
		CHANNELS 3 Zrotation Yrotation Xrotation
		JOINT LeftUpLeg
		{
			OFFSET 1.363060 -1.794630 0.839290
			CHANNELS 3 Zrotation Yrotation Xrotation
			JOINT LeftLeg
			{
				OFFSET 2.448110 -6.726130 0.000000
				CHANNELS 3 Zrotation Yrotation Xrotation
				JOINT LeftFoot
				{
					OFFSET 2.562200 -7.039590 0.000000
					CHANNELS 3 Zrotation Yrotation Xrotation
					JOINT LeftToeBase
					{
						OFFSET 0.157640 -0.433110 2.322550
						CHANNELS 3 Zrotation Yrotation Xrotation
						End Site
						{
							OFFSET 0.000000 0.000000 0.000000
						}
					}
				}
			}
		}
	}
	JOINT RHipJoint
	{
		OFFSET 0.000000 0.000000 0.000000
		CHANNELS 3 Zrotation Yrotation Xrotation
		JOINT RightUpLeg
		{
			OFFSET -1.305520 -1.794630 0.839290
			CHANNELS 3 Zrotation Yrotation Xrotation
			JOINT RightLeg
			{
				OFFSET -2.542530 -6.985550 0.000000
				CHANNELS 3 Zrotation Yrotation Xrotation
				JOINT RightFoot
				{
					OFFSET -2.568260 -7.056230 0.000000
					CHANNELS 3 Zrotation Yrotation Xrotation
					JOINT RightToeBase
					{
						OFFSET -0.164730 -0.452590 2.363150
						CHANNELS 3 Zrotation Yrotation Xrotation
						End Site
						{
							OFFSET 0.000000 0.000000 0.000000
						}
					}
				}
			}
		}
	}
	JOINT LowerBack
	{
		OFFSET 0.000000 0.000000 0.000000
		CHANNELS 3 Zrotation Yrotation Xrotation
		JOINT Spine
		{
			OFFSET 0.028270 2.035590 -0.193380
			CHANNELS 3 Zrotation Yrotation Xrotation
			JOINT Spine1
			{
				OFFSET 0.056720 2.048850 -0.042750
				CHANNELS 3 Zrotation Yrotation Xrotation
				JOINT Neck
				{
					OFFSET 0.000000 0.000000 0.000000
					CHANNELS 3 Zrotation Yrotation Xrotation
					JOINT Neck1
					{
						OFFSET -0.054170 1.746240 0.172020
						CHANNELS 3 Zrotation Yrotation Xrotation
						JOINT Head
						{
							OFFSET 0.104070 1.761360 -0.123970
							CHANNELS 3 Zrotation Yrotation Xrotation
							End Site
							{
								OFFSET 0.000000 0.000000 0.000000
							}
						}
					}
				}
				JOINT LeftShoulder
				{
					OFFSET 0.000000 0.000000 0.000000
					CHANNELS 3 Zrotation Yrotation Xrotation
					JOINT LeftArm
					{
						OFFSET 3.362410 1.200890 -0.311210
						CHANNELS 3 Zrotation Yrotation Xrotation
						JOINT LeftForeArm
						{
							OFFSET 4.983000 -0.000000 -0.000000
							CHANNELS 3 Zrotation Yrotation Xrotation
							JOINT LeftHand
							{
								OFFSET 3.483560 -0.000000 -0.000000
								CHANNELS 3 Zrotation Yrotation Xrotation
								JOINT LeftFingerBase
								{
									OFFSET 0.000000 0.000000 0.000000
									CHANNELS 3 Zrotation Yrotation Xrotation
									JOINT LeftHandIndex1
									{
										OFFSET 0.715260 -0.000000 -0.000000
										CHANNELS 3 Zrotation Yrotation Xrotation
										End Site
										{
											OFFSET 0.000000 0.000000 0.000000
										}
									}
								}
								JOINT LThumb
								{
									OFFSET 0.000000 0.000000 0.000000
									CHANNELS 3 Zrotation Yrotation Xrotation
									End Site
									{
										OFFSET 0.000000 0.000000 0.000000
									}
								}
							}
						}
					}
				}
				JOINT RightShoulder
				{
					OFFSET 0.000000 0.000000 0.000000
					CHANNELS 3 Zrotation Yrotation Xrotation
					JOINT RightArm
					{
						OFFSET -3.136600 1.374050 -0.404650
						CHANNELS 3 Zrotation Yrotation Xrotation
						JOINT RightForeArm
						{
							OFFSET -5.241900 -0.000000 -0.000000
							CHANNELS 3 Zrotation Yrotation Xrotation
							JOINT RightHand
							{
								OFFSET -3.444170 -0.000000 -0.000000
								CHANNELS 3 Zrotation Yrotation Xrotation
								JOINT RightFingerBase
								{
									OFFSET 0.000000 0.000000 0.000000
									CHANNELS 3 Zrotation Yrotation Xrotation
									JOINT RightHandIndex1
									{
										OFFSET -0.622530 -0.000000 -0.000000
										CHANNELS 3 Zrotation Yrotation Xrotation
										End Site
										{
											OFFSET 0.000000 0.000000 0.000000
										}
									}
								}
								JOINT RThumb
								{
									OFFSET 0.000000 0.000000 0.000000
									CHANNELS 3 Zrotation Yrotation Xrotation
									End Site
									{
										OFFSET 0.000000 0.000000 0.000000
									}
								}
							}
						}
					}
				}
			}
		}
	}
}
MOTION
Frames: 9
Frame Time: 0.008333
-0.266158 16.922311 -4.687189 1.765553 -3.222963 20.066266 -0.951403 -3.251713 -4.770927 -13.494362 -9.080318 -47.843439 0.535258 11.034684 27.871805 0.525770 -0.609952 8.400897 1.042700 -6.494000 -18.224500 0.135149 0.834858 -0.575776 15.462020 -1.949194 -0.825442 -2.086749 -10.098093 31.029988 -0.651935 17.780740 13.079807 -0.192200 2.823200 -7.786900 -4.080821 2.562737 -9.639862 -0.625468 3.555182 -10.379949 -0.253158 2.118914 -0.955043 -1.574607 -1.954691 -9.615348 5.743811 -3.100884 12.413065 0.937400 -1.155400 4.673400 12.682070 7.856039 0.402274 -96.376290 27.279978 -50.195373 3.258561 -10.003046 0.052818 -1.278549 -0.393342 56.488152 15.191670 -14.743298 -3.691800 -7.125000 0.000000 0.000000 -8.095100 16.197100 5.572300 -13.021079 -7.007273 -0.530747 88.726417 4.863426 34.682841 -41.775487 54.443593 -19.748513 0.265249 -1.286204 -13.099376 -22.355736 -31.584892 11.665800 7.125000 0.000000 0.000000 10.708100 -61.811400 -4.407700
-0.264029 16.923933 -4.562362 1.971395 -2.927527 19.970272 -0.940857 -3.216779 -4.721119 -13.728604 -9.433834 -47.727996 0.679322 11.264891 28.607879 0.555364 -1.055312 8.086740 0.905965 -6.044884 -16.920792 0.101893 0.856076 -0.625560 15.342252 -1.980002 -1.306454 -2.344624 -10.512284 32.391536 -0.700988 16.818987 14.743691 -0.187188 2.786227 -7.684207 -4.373700 2.456366 -9.426107 -0.650985 3.459269 -10.419043 -0.197167 2.075558 -1.114060 -1.694479 -2.003570 -9.694262 5.942481 -3.186000 12.604611 0.989976 -1.181357 4.568249 12.662364 7.829753 0.385018 -96.298177 27.251497 -49.560030 3.291641 -10.089135 0.039780 -1.265498 -0.399097 55.932847 15.071912 -14.632099 -3.635962 -7.125000 0.000000 0.000000 -8.177226 16.306885 5.610124 -13.018369 -6.981729 -0.514111 88.828944 4.074718 34.267513 -42.240333 54.657565 -20.065941 0.279783 -1.301117 -13.773699 -22.258595 -32.780181 11.999694 7.125000 0.000000 0.000000 11.678434 -62.953977 -5.156006
-0.261901 16.925554 -4.437536 2.177237 -2.632091 19.874279 -0.930310 -3.181846 -4.671311 -13.962846 -9.787350 -47.612554 0.823385 11.495097 29.343954 0.584958 -1.500673 7.772582 0.769231 -5.595768 -15.617084 0.068638 0.877293 -0.675345 15.222485 -2.010810 -1.787466 -2.602499 -10.926475 33.753085 -0.750042 15.857233 16.407576 -0.182177 2.749254 -7.581514 -4.666579 2.349994 -9.212352 -0.676501 3.363355 -10.458137 -0.141176 2.032202 -1.273076 -1.814350 -2.052450 -9.773176 6.141151 -3.271117 12.796157 1.042551 -1.207314 4.463097 12.642658 7.803466 0.367762 -96.220064 27.223016 -48.924687 3.324720 -10.175224 0.026743 -1.252447 -0.404853 55.377543 14.952154 -14.520900 -3.580124 -7.125000 0.000000 0.000000 -8.259352 16.416670 5.647949 -13.015660 -6.956186 -0.497476 88.931472 3.286010 33.852184 -42.705178 54.871537 -20.383369 0.294317 -1.316030 -14.448021 -22.161454 -33.975470 12.333587 7.125000 0.000000 0.000000 12.648769 -64.096553 -5.904312
-0.258471 16.932334 -4.314952 2.457714 -2.417979 19.740732 -0.934301 -3.143269 -4.618616 -14.284883 -10.112493 -47.351575 0.944615 11.675685 29.942059 0.590812 -1.733916 7.483099 0.615885 -4.974309 -13.844882 0.040230 0.896871 -0.725931 14.960227 -1.990726 -2.283360 -2.904453 -11.350065 35.192082 -0.816266 15.158903 17.884088 -0.177249 2.711778 -7.477441 -5.013625 2.240805 -8.993600 -0.718101 3.271082 -10.470522 -0.103790 1.986409 -1.395940 -1.859575 -2.083382 -9.748436 6.258053 -3.326885 12.766404 1.088433 -1.231513 4.430582 12.631399 7.776049 0.358685 -96.167924 27.082623 -48.727047 3.352162 -10.236318 0.010114 -1.235043 -0.405585 55.139156 14.782585 -14.262940 -3.475206 -7.125000 0.000000 0.000000 -8.380767 16.674279 5.684518 -13.019288 -6.938536 -0.473135 89.063188 2.544314 33.714908 -42.759346 54.891039 -20.411334 0.302164 -1.310319 -14.510153 -22.097269 -33.426676 12.121079 7.125000 0.000000 0.000000 12.301069 -63.542519 -5.584542
-0.254873 16.939784 -4.192659 2.747894 -2.214438 19.602305 -0.940181 -3.104218 -4.565546 -14.618333 -10.433947 -47.071676 1.062876 11.849822 30.522229 0.593579 -1.939584 7.196825 0.460380 -4.330446 -12.011777 0.012453 0.916236 -0.776621 14.679446 -1.964026 -2.781189 -3.212137 -11.774878 36.641149 -0.884723 14.494817 19.336242 -0.172331 2.674238 -7.373187 -5.367713 2.131249 -8.774198 -0.761790 3.179282 -10.479435 -0.068823 1.940298 -1.514104 -1.895096 -2.111981 -9.710220 6.364325 -3.378838 12.707882 1.133444 -1.255485 4.407509 12.621238 7.748484 0.350671 -96.119161 26.927681 -48.586308 3.378870 -10.294163 -0.006981 -1.217073 -0.405665 54.941969 14.606540 -13.985901 -3.363908 -7.125000 0.000000 0.000000 -8.507289 16.951105 5.720923 -13.023741 -6.921912 -0.447792 89.198699 1.808730 33.613779 -42.760125 54.885261 -20.401669 0.309142 -1.301927 -14.492700 -22.037369 -32.651152 11.837539 7.125000 0.000000 0.000000 11.782026 -62.767925 -5.125923
-0.254045 16.950863 -4.070756 2.999894 -2.231576 19.515130 -0.943916 -3.071424 -4.515797 -14.955908 -10.530234 -46.829283 1.164047 11.990545 31.004562 0.581223 -2.005444 6.841623 0.341349 -3.697393 -10.232873 -0.015864 0.941684 -0.830202 14.390523 -1.648532 -3.337322 -3.542618 -12.197671 38.122056 -0.959273 14.072060 20.678296 -0.182048 2.746084 -7.572779 -5.739433 2.089998 -8.615943 -0.817738 3.174663 -10.498787 -0.016469 1.941222 -1.630004 -1.924269 -2.133032 -9.707215 6.474128 -3.421540 12.670608 1.177108 -1.272976 4.400234 12.606650 7.723919 0.339890 -96.063509 26.775947 -48.070204 3.408674 -10.370328 -0.020457 -1.202790 -0.410767 54.333779 14.459982 -13.873346 -3.304082 -7.125000 0.000000 0.000000 -8.608803 17.061831 5.769961 -13.029531 -6.904679 -0.422640 89.387856 1.117162 33.503145 -42.687830 54.843516 -20.340000 0.312097 -1.299024 -14.524061 -22.009770 -32.221303 11.681296 7.125000 0.000000 0.000000 11.506437 -62.336526 -4.885168
-0.254045 16.963026 -3.948970 3.240484 -2.314665 19.443272 -0.947010 -3.040501 -4.467040 -15.294716 -10.559230 -46.598099 1.260111 12.121281 31.457656 0.564347 -2.029522 6.465824 0.233219 -3.067572 -8.470167 -0.044343 0.968950 -0.884646 14.099167 -1.246732 -3.910878 -3.879912 -12.619860 39.612480 -1.035643 13.721423 21.987446 -0.196137 2.850621 -7.863175 -6.116423 2.069162 -8.475962 -0.877348 3.196098 -10.521259 0.041081 1.956201 -1.745228 -1.951546 -2.151828 -9.714733 6.584986 -3.461477 12.639684 1.220369 -1.288531 4.397681 12.590739 7.700250 0.328283 -96.005800 26.625171 -47.441921 3.439402 -10.451969 -0.032851 -1.189610 -0.417370 53.602760 14.322237 -13.809948 -3.259639 -7.125000 0.000000 0.000000 -8.702844 17.122917 5.822773 -13.035722 -6.887264 -0.397545 89.593045 0.438749 33.389670 -42.593698 54.791024 -20.262791 0.313848 -1.297762 -14.570010 -21.991826 -31.894760 11.563095 7.125000 0.000000 0.000000 11.303604 -62.007692 -4.709521
-0.252751 16.975521 -3.828910 3.418674 -2.435964 19.389367 -0.951938 -3.016931 -4.422279 -15.610793 -10.497783 -46.364851 1.343620 12.230139 31.847012 0.552395 -2.074764 6.044944 0.138434 -2.170700 -5.985389 -0.074969 0.997685 -0.944015 13.854548 -0.808286 -4.541256 -4.237677 -13.037696 41.124306 -1.129589 13.388600 23.331045 -0.213911 2.974416 -8.207693 -6.415183 2.065022 -8.371117 -0.920075 3.228117 -10.524734 0.116581 1.977194 -1.795003 -2.048488 -2.153421 -9.795333 6.710156 -3.470689 12.598162 1.284375 -1.290649 4.404788 12.580429 7.680665 0.323414 -96.009603 26.393518 -46.710335 3.461886 -10.522579 -0.046253 -1.171932 -0.427204 52.725802 14.168730 -13.682358 -3.196123 -7.125000 0.000000 0.000000 -8.810569 17.247476 5.871962 -13.044104 -6.877940 -0.375676 89.766863 -0.123398 33.333057 -42.438152 54.709021 -20.144184 0.309722 -1.299043 -14.711975 -22.156171 -31.777202 11.612493 7.125000 0.000000 0.000000 11.043801 -61.930581 -4.578461
-0.250774 16.988191 -3.709759 3.563977 -2.577402 19.344923 -0.957833 -2.997236 -4.379623 -15.914890 -10.388672 -46.130514 1.420512 12.327465 32.202777 0.543040 -2.131159 5.600306 0.050682 -1.133086 -3.120059 -0.106728 1.027196 -1.005978 13.634562 -0.350527 -5.201580 -4.606232 -13.453236 42.647413 -1.232798 13.065164 24.692798 -0.233627 3.108362 -8.580735 -6.672716 2.069682 -8.284791 -0.953904 3.265713 -10.518198 0.201543 2.001356 -1.810283 -2.182146 -2.145949 -9.914449 6.842868 -3.463708 12.551054 1.359315 -1.285685 4.416987 12.573070 7.663233 0.322096 -96.045826 26.119240 -45.924306 3.480024 -10.587375 -0.060185 -1.151884 -0.438740 51.771930 14.006917 -13.520938 -3.122554 -7.125000 0.000000 0.000000 -8.925508 17.405487 5.919243 -13.053640 -6.872881 -0.355507 89.924147 -0.624269 33.306413 -42.250239 54.611466 -20.003759 0.302498 -1.301665 -14.904545 -22.416587 -31.769785 11.750221 7.125000 0.000000 0.000000 10.753972 -61.986135 -4.470898
